<svg xmlns="http://www.w3.org/2000/svg" viewBox="0 0 93 83"><defs><style>.cls-1{fill:#011569;}.cls-2{fill:#052e04;}.cls-3{fill:#01074e;}</style></defs><title>Asset 2</title><g id="Layer_2" data-name="Layer 2"><g id="Layer_2-2" data-name="Layer 2"><path class="cls-1" d="M17.24,50.43a1,1,0,0,1-.91-.28A61.36,61.36,0,0,1,4.39,33.38C1.33,27-1.1,21.73.51,15.4.92,13.81,2.41,7.93,8,4.81c7.32-4,16.14-.38,17.56.22,4.57,1.9,4.3,3.58,11.4,7.4,4.24,2.29,6.61,3.57,10.26,4.24,5.82,1.06,11.14-.11,15.51-1.06.71-.16,1.39-.32,2-.48a.92.92,0,0,1,.92,1.55c-.34.28-.71.56-1.11.83a21.45,21.45,0,0,1-10,3.39,23.49,23.49,0,0,1-11-.64c-3.86-1.3-3.83-2.73-12.08-7.4a46.75,46.75,0,0,0-5.25-2.54A19.3,19.3,0,0,0,21,8.62a13.63,13.63,0,0,0-6.85,1.06,14.14,14.14,0,0,0-6.84,6.14c-1.92,3.79-.95,7.44.23,11.64,1.36,4.82,2.95,6.51,8.67,17.35.88,1.67,1.63,3.12,2.2,4.24a.9.9,0,0,1-.69,1.28Z"/><path class="cls-2" d="M35,6.93c.43-.48,2.79,1.34,6.61,2.12a19.34,19.34,0,0,0,5.93.21c5-.48,6.82-2.56,13.45-5.5,4.79-2.13,7.3-3.24,11-3.6A21.41,21.41,0,0,1,85.11,2.7c1.38.82,5.67,3.45,7.3,8.46,1.25,3.86.26,7.08-.68,10.16-2.3,7.48-7.31,12.45-11.41,16.51-.49.49-1,1-1.45,1.4-.78.73-2.05-.11-1.58-1q1.42-2.78,2.81-5.87c1.22-2.76,2.26-5.41,3.15-7.94a.78.78,0,0,1,.11-.2,17.37,17.37,0,0,0,2.89-7.1c.39-2.43,1-6.4-1.59-9.1-2.35-2.43-6-2.51-7.3-2.54-4.15-.09-6.12,1.7-12.54,4.44-5.11,2.19-7.67,3.28-11.18,3.81-1.23.19-11.07,1.56-16.64-3.6C35.7,8.9,34.6,7.31,35,6.93Z"/><path class="cls-3" d="M31.58,79a.92.92,0,0,1,.91-1.56l0,0a35.1,35.1,0,0,0,4.69.85,30.7,30.7,0,0,0,4.33.22c3.66-.15,4.86-2.13,11-5.29a27.84,27.84,0,0,1,8.89-3.39,23,23,0,0,1,3.4-.31.9.9,0,0,1,.64,1.61c-1.12.86-2.1,1.55-2.9,2.09-1.33.89-2,1.24-6.61,4s-4.5,2.7-5,3a27.7,27.7,0,0,1-8.21,2.75C38.25,83.4,34.22,81.06,31.58,79Z"/><path class="cls-1" d="M7,58.13,8.43,58h.35l1.22.18v.63H7ZM7.09,51H8.86l0,.81H8.67l-1.58-.18Zm1.09,0h.71L9,55.1v3.66h-.8Zm.07,0h2.11l2.23,5.74h-.41L14.28,51h.82l-2.86,7.74h-1Zm5.25,7.11L15.09,58h.57l1.79.18v.63H13.5Zm.93-2.78,0-4.33h2.07c0,1.2,0,2.43,0,3.65v.44c0,1.23,0,2.46,0,3.65H14.39C14.43,57.56,14.42,56.33,14.43,55.35Zm1-4.33h1.95v.63l-1.75.18h-.2Z"/><path class="cls-1" d="M18.86,58.76c0-.53,0-1.74,0-2.47v-.57c0-.64,0-1,0-1.48l-.76-.11v-.46l2.59-.79.22.13,0,1.71v1.57c0,.73,0,1.94,0,2.47Zm2.64-.54v.54H18.22v-.54L19.37,58h.93Zm-2.69-7.15a1.06,1.06,0,1,1,1.05.94A1,1,0,0,1,18.81,51.07Z"/><path class="cls-1" d="M22.14,58.4l0-1.45h1l.28,1.58-.7-.23v-.48a2.92,2.92,0,0,0,1.55.47c.72,0,1.11-.22,1.11-.69s-.23-.62-1.05-.84l-.66-.19a1.78,1.78,0,0,1-1.5-1.76c0-1.08.91-1.93,2.58-1.93a4.28,4.28,0,0,1,2,.48l-.09,1.29h-1l-.36-1.45.69.28v.43a2.11,2.11,0,0,0-1.26-.38c-.56,0-.93.24-.93.66s.19.56,1,.8l.6.17c1.18.33,1.65.94,1.65,1.82,0,1.25-1.06,2-2.8,2A4.33,4.33,0,0,1,22.14,58.4Z"/><path class="cls-1" d="M28.22,51.34l-.77-.11v-.5L30,50.2l.2.12L30.16,52V54.3l0,.15v1.84c0,.73,0,1.94,0,2.47H28.18c0-.53,0-1.74,0-2.47Zm2.57,6.88v.54H27.53v-.54L28.68,58h.94Zm3.15-3.31v1.38c0,.75,0,1.94,0,2.47h-2c0-.53,0-1.72,0-2.47V55.05c0-.76-.16-1-.66-1a2.31,2.31,0,0,0-1.5.95h-.45v-.84h.81l-.48.33c.87-1.19,1.55-1.58,2.44-1.58C33.22,52.88,33.94,53.55,33.94,54.91ZM33.36,58l1.21.24v.54H31.3v-.54L32.43,58Z"/><path class="cls-1" d="M35.86,56.29V55.6c0-.65,0-.89,0-1.36l-.76-.11v-.46l2.44-.79.22.13.11,1.45v1.83c0,.73,0,1.94,0,2.47h-2C35.85,58.23,35.86,57,35.86,56.29Zm-.69,1.93L36.35,58h1.3l1.19.24v.54H35.17Zm1.75-3.49h.93l-.16.32c.21-1.45,1.08-2.17,1.82-2.17a1,1,0,0,1,1.07.87.88.88,0,0,1-.88,1,1.18,1.18,0,0,1-1-.55l-.37-.45.5.17a2.87,2.87,0,0,0-1.05,1.64l-.91-.09Z"/><path class="cls-1" d="M43.08,55.48c.51-.14,1.39-.37,2-.5v.5a11.52,11.52,0,0,0-1.61.47,1.28,1.28,0,0,0-.93,1.18c0,.59.33.86.75.86a1.4,1.4,0,0,0,.82-.37l.5-.36.13.18-.52.53a2.34,2.34,0,0,1-1.89,1,1.45,1.45,0,0,1-1.62-1.5C40.68,56.6,41.17,56,43.08,55.48ZM44,57.8V54.85c0-1.05-.21-1.36-1-1.36a4.71,4.71,0,0,0-1.16.17l.85-.46-.09.82c0,.79-.43,1.1-.91,1.1a.76.76,0,0,1-.83-.59c.06-1,1.06-1.65,2.84-1.65,1.59,0,2.22.64,2.22,2.22v2.65c0,.23.1.34.28.34s.23-.06.38-.26l.33.21a1.43,1.43,0,0,1-1.5.89A1.26,1.26,0,0,1,44,57.8Z"/><path class="cls-1" d="M55.22,51.65V51h2v.81H57Zm2,6.3v.81h-2v-.63L57,58Zm-1-3.28c0-1.21,0-2.44,0-3.65H58.3c0,1.19,0,2.41,0,3.65v.39c0,1.26,0,2.49,0,3.7H56.14c0-1.19,0-2.41,0-3.69Zm1,3.42h1.47c1.42,0,2.3-1.16,2.3-3.21s-.88-3.19-2.28-3.19H57.22V51h1.69c2.64,0,4.23,1.46,4.23,3.85s-1.75,3.89-4.45,3.89H57.22Z"/><path class="cls-1" d="M66.16,55.48c.51-.14,1.39-.37,2-.5v.5a11.52,11.52,0,0,0-1.61.47,1.26,1.26,0,0,0-.93,1.18c0,.59.33.86.74.86a1.42,1.42,0,0,0,.83-.37l.5-.36.13.18-.52.53a2.34,2.34,0,0,1-1.89,1,1.45,1.45,0,0,1-1.62-1.5C63.76,56.6,64.25,56,66.16,55.48Zm.94,2.32V54.85c0-1.05-.21-1.36-1-1.36a4.65,4.65,0,0,0-1.16.17l.85-.46L65.7,54c0,.79-.43,1.1-.91,1.1a.76.76,0,0,1-.83-.59c.06-1,1.06-1.65,2.84-1.65,1.59,0,2.22.64,2.22,2.22v2.65c0,.23.1.34.28.34s.23-.06.38-.26L70,58a1.41,1.41,0,0,1-1.49.89A1.26,1.26,0,0,1,67.1,57.8Z"/><path class="cls-1" d="M70.94,58.76c0-.53,0-1.74,0-2.47v-.68c0-.65,0-.9,0-1.37l-.76-.11v-.46l2.44-.79.22.13L73,54.32v2c0,.73,0,1.94,0,2.47Zm2.61-.54v.54H70.29v-.54L71.44,58h.94Zm3.13-3.31v1.38c0,.75,0,1.94,0,2.47h-2c0-.53,0-1.72,0-2.47V55.05c0-.76-.2-1-.7-1a2.35,2.35,0,0,0-1.53.87h-.42v-.76h.84l-.47.33c.87-1.19,1.57-1.58,2.46-1.58C76,52.88,76.68,53.55,76.68,54.91ZM76.1,58l1.22.24v.54H74.05v-.54L75.17,58Z"/><path class="cls-1" d="M81.05,58a1.13,1.13,0,0,0,.67-.26L82,58a1.89,1.89,0,0,1-1.82.94c-1.12,0-1.78-.47-1.78-1.64,0-.41,0-.72,0-1.18V53.87h-.8v-.7L79.11,53l-.71.47.78-2.05h1.27l0,2.12v3.64C80.42,57.73,80.68,58,81.05,58Zm.67-4.92v.81H79.44v-.81Z"/><path class="cls-2" d="M19.44,66.77v.42l-.61.13L19.15,66h.72l0,1.31a3.87,3.87,0,0,1-1.87.44,2.77,2.77,0,0,1-3.09-2.9c0-2.1,1.55-2.89,3.18-2.89a3.59,3.59,0,0,1,1.73.42l0,1.33H19.1l-.33-1.36.6.14v.44a1.55,1.55,0,0,0-1.07-.48c-.84,0-1.62.67-1.62,2.41s.77,2.38,1.59,2.38A2,2,0,0,0,19.44,66.77Z"/><path class="cls-2" d="M20.31,62.6v-.49H23.2v.49l-1.33.13h-.29Zm1.56,4.34,1.33.13v.49H20.31v-.49l1.27-.13Zm-1-2.24c0-.86,0-1.73,0-2.59h1.79c0,.84,0,1.71,0,2.59V65c0,.87,0,1.74,0,2.6H20.88c0-.85,0-1.72,0-2.59Zm.87.32v-.53H25V65Zm1.79-2.42v-.49h2.89v.49l-1.31.13h-.27Zm1.58,4.34,1.31.13v.49H23.57v-.49l1.31-.13Zm-1-2.24c0-.86,0-1.73,0-2.59h1.79c0,.84,0,1.71,0,2.59V65c0,.86,0,1.73,0,2.59H24.1c0-.85,0-1.72,0-2.6Z"/><path class="cls-2" d="M27,62.6v-.49h3v.49l-1.36.13h-.29Zm1.62,4.34,1.36.13v.49H27v-.49l1.33-.13Zm-1-2.24c0-.86,0-1.73,0-2.59h1.79c0,.84,0,1.71,0,2.59V65c0,.87,0,1.74,0,2.6H27.54c0-.85,0-1.72,0-2.59Z"/><path class="cls-2" d="M30.42,62.6v-.49h2.89v.49L32,62.73h-.29ZM32,66.94l1.15.13v.49H30.42v-.49l1.32-.13ZM31,64.7c0-.86,0-1.73,0-2.59h1.71c0,.84,0,1.71,0,2.59V65c0,.87,0,1.74,0,2.6H31c0-.85,0-1.72,0-2.59Zm.88,1.09L35,62.11h.71l-3.82,4.28ZM34,63.65l2.15,3.91H34.26l-1.33-2.64Zm-.32,3.42,1.23-.13h.22l1.2.13v.49H33.7ZM34,62.6v-.49h2v.49l-1,.13h-.29Z"/><path class="cls-2" d="M36.64,62.6v-.49h3v.49l-1.36.13H38Zm1.61,4.34,1.36.13v.49h-3v-.49L38,66.94Zm-1-2.24c0-.86,0-1.73,0-2.59H39c0,.84,0,1.71,0,2.59V65c0,.87,0,1.74,0,2.6h-1.8c0-.85,0-1.72,0-2.59Z"/><path class="cls-2" d="M40.34,62.6l.73-.49-.21,1.58H40l0-1.58h5.3v1.58h-.82l-.21-1.58.72.49Zm2.58,4.34,1.36.13v.49H41.12v-.49l1.33-.13ZM41.83,64.7c0-.86,0-1.73,0-2.59h1.79c0,.84,0,1.71,0,2.59V65c0,.87,0,1.74,0,2.6H41.8c0-.85,0-1.72,0-2.59Z"/><path class="cls-2" d="M48.51,66.49c0-.4-.18-.59-.62-.79l-.39-.17c-1.09-.5-1.68-1-1.68-2s.85-1.64,2.27-1.64a3.57,3.57,0,0,1,1.75.42l-.08,1.2h-.92l-.2-1.26.77.22v.42a2.4,2.4,0,0,0-1.27-.47.74.74,0,0,0-.79.68c0,.41.25.61.72.83l.44.2c1.11.5,1.57.95,1.57,1.82s-.76,1.73-2.38,1.73a4.11,4.11,0,0,1-2-.44L45.77,66h.93l.23,1.38-.72-.19v-.4a3.38,3.38,0,0,0,1.5.39A.71.71,0,0,0,48.51,66.49Z"/><path class="cls-2" d="M50.12,67.07l.92-.13h.15l.78.13v.49H50.12Zm2.46-5h1.05l2,5.45H53.82l-1.39-4.29.38-.59-1.64,4.88h-.56Zm-.92,3.42H54l.22.52H51.51ZM53,67.09,54,67h.75l1.14.13v.47H53Z"/><path class="cls-2" d="M56.25,62.6v-.49h3.07v.49L58,62.73h-.38Zm1.49,4.34v.62H56.25v-.49l1.33-.13Zm-.9-4.83h1.8c0,.84,0,1.71,0,2.59v.38c0,.75,0,1.62,0,2.48h-1.8c0-.85,0-1.72,0-2.35V64.7C56.87,63.84,56.87,63,56.84,62.11ZM61,65.89l-.09,1.67H57.74v-.5h2.85l-.74.5.34-1.67Z"/><path class="cls-2" d="M61.14,67.07l.91-.13h.15l.78.13v.49H61.14Zm2.45-5h1l2,5.45H64.84l-1.4-4.29.38-.59-1.64,4.88h-.56Zm-.92,3.42h2.38l.22.52H62.53Zm1.38,1.56L65,67h.75l1.14.13v.47H64.05Z"/><path class="cls-2" d="M66.27,62.6v-.49h3v.49l-1.1.13h-.47Zm2,3.19-1.88-3.68h2l1.28,2.76-.26,0,1.35-2.81h.65l-1.93,3.68Zm.9,1.15,1.36.13v.49H67.41v-.49l1.33-.13Zm-1.09-2h1.74c0,1.38,0,1.84,0,2.62h-1.8C68.11,66.8,68.11,66.34,68.11,64.94Zm2.61-2.21L70,62.6v-.49h1.74v.49l-.75.13Z"/><path class="cls-2" d="M70.89,67.07l.92-.13H72l.78.13v.49H70.89Zm2.46-5H74.4l2,5.45H74.59L73.2,63.27l.37-.59-1.63,4.88h-.56Zm-.92,3.42H74.8l.22.52H72.28Zm1.38,1.56,1-.13h.75l1.14.13v.47H73.81Z"/></g></g></svg>